<svg width="216" height="31" viewBox="0 0 216 31" fill="none" xmlns="http://www.w3.org/2000/svg">
<path d="M18.8394 14.5753C21.5735 13.4769 23.4105 11.2378 23.4105 7.85798C23.4105 3.0418 19.5657 0.253483 12.9014 0.253483H0V29.8265H13.7558C21.2317 29.8265 24.9911 26.9537 24.9911 21.9263C24.9911 17.9128 22.6842 15.4202 18.8394 14.5753ZM12.6878 2.83056C17.4724 2.83056 20.2492 4.64719 20.2492 8.19596C20.2492 11.7447 17.4724 13.5613 12.6878 13.5613H3.16127V2.83056H12.6878ZM13.7131 27.2494H3.16127V16.1384H13.7131C18.9676 16.1384 21.8298 17.8283 21.8298 21.6728C21.8298 25.5596 18.9676 27.2494 13.7131 27.2494Z" fill="white"/>
<path d="M32.2067 29.8265H35.368V0.253483H32.2067V29.8265Z" fill="white"/>
<path d="M86.8844 30.08C94.5313 30.08 98.0343 26.3623 98.0343 22.0108C98.0343 11.2378 79.6221 16.1384 79.6221 8.02697C79.6221 5.06966 82.0571 2.66157 87.5252 2.66157C90.1738 2.66157 93.1642 3.46427 95.7274 5.11191L96.7954 2.61932C94.4031 0.971685 90.9001 0 87.5252 0C79.9211 0 76.5035 3.76 76.5035 8.11146C76.5035 19.0535 94.9157 14.0683 94.9157 22.1798C94.9157 25.0948 92.4807 27.4184 86.8844 27.4184C82.9542 27.4184 79.1521 25.8975 77.0161 23.8274L75.7773 26.2355C77.9987 28.5169 82.3988 30.08 86.8844 30.08Z" fill="white"/>
<path d="M108.083 27.1227V16.1384H123.548V13.4769H108.083V2.9573H125.428V0.253483H104.922V29.8265H126.068V27.1227H108.083Z" fill="white"/>
<path d="M155.372 0.253483V24.2499L136.105 0.253483H133.499V29.8265H136.661V5.83011L155.885 29.8265H158.49V0.253483H155.372Z" fill="white"/>
<path d="M176.496 30.08C184.143 30.08 187.646 26.3623 187.646 22.0108C187.646 11.2378 169.234 16.1384 169.234 8.02697C169.234 5.06966 171.669 2.66157 177.137 2.66157C179.785 2.66157 182.776 3.46427 185.339 5.11191L186.407 2.61932C184.015 0.971685 180.512 0 177.137 0C169.533 0 166.115 3.76 166.115 8.11146C166.115 19.0535 184.527 14.0683 184.527 22.1798C184.527 25.0948 182.092 27.4184 176.496 27.4184C172.566 27.4184 168.764 25.8975 166.628 23.8274L165.389 26.2355C167.61 28.5169 172.01 30.08 176.496 30.08Z" fill="white"/>
<path d="M197.695 27.1227V16.1384H213.16V13.4769H197.695V2.9573H215.039V0.253483H194.534V29.8265H215.68V27.1227H197.695Z" fill="white"/>
<path d="M71.6263 12.1321C71.3296 10.7538 70.2301 8.04805 69.0085 8.55857C67.7868 9.06908 69.0085 11.3153 69.183 12.3023C69.3575 13.2893 69.532 14.6847 69.532 15.8759C69.532 22.0701 63.0747 28.8088 55.5703 27.2773C59.5145 24.027 58.5895 20.2152 58.1707 16.7267C59.0607 16.6416 59.7588 15.961 59.7588 15.1101C59.7588 14.2422 59.0258 13.5445 58.1009 13.4935C58.2754 12.1832 58.8338 10.975 60.1079 9.91993C60.9979 9.20521 64.2266 8.60962 64.8549 7.65666C66.2161 5.66567 62.3766 1.58159 58.0136 1.75176C57.3155 0.152162 56.2858 -0.137127 54.6977 0.0500597C53.3015 0.22023 51.9053 1.61562 52.0798 2.94295C47.7168 4.13414 45.2386 8.33734 45.2386 8.33734C44.5754 9.37538 42.9 12.2683 43.0047 15.8759C43.0396 17.1011 43.2839 18.3944 43.7202 19.6877L47.6295 16.5736V12.0981C47.1758 11.979 46.8442 11.5876 46.8442 11.1111C46.8442 10.5496 47.3154 10.0901 47.8913 10.0901C48.4672 10.0901 48.9384 10.5496 48.9384 11.1111C48.9384 11.5876 48.6069 11.996 48.1531 12.0981L48.2404 16.7608L43.9122 20.1982C44.0693 20.6236 44.2613 21.0491 44.4707 21.4745L49.7412 17.3053C49.6714 17.1692 49.654 17.033 49.654 16.8799C49.654 16.3183 50.1252 15.8589 50.7011 15.8589C51.277 15.8589 51.7482 16.3183 51.7482 16.8799C51.7482 17.4414 51.277 17.9009 50.7011 17.9009C50.4742 17.9009 50.2474 17.8328 50.0728 17.6967L44.6976 21.951C44.9419 22.4104 45.2037 22.8699 45.5004 23.3123L48.9559 20.5556L50.7884 21.2192C50.9454 20.8789 51.3119 20.6236 51.7308 20.6236C52.3067 20.6236 52.7779 21.0831 52.7779 21.6446C52.7779 22.2062 52.3067 22.6657 51.7308 22.6657C51.1723 22.6657 50.736 22.2573 50.6837 21.7297L49.0606 21.1341L45.797 23.7377C48.2578 27.2603 52.2893 30 57.5075 30C66.5652 30 71.7659 21.7127 71.9928 15.8759C72.0277 14.4805 71.9404 13.5275 71.6263 12.1321ZM60.1951 4.47448C60.5267 4.47448 60.8059 4.74676 60.8059 5.07008C60.8059 5.3934 60.5267 5.66567 60.1951 5.66567C59.8635 5.66567 59.5843 5.3934 59.5843 5.07008C59.5843 4.74676 59.8635 4.47448 60.1951 4.47448Z" fill="white"/>
</svg>
