<svg width="278" height="268" viewBox="0 0 278 268" fill="none" xmlns="http://www.w3.org/2000/svg">
<path d="M274.418 108.38C271.574 96.0669 261.034 71.896 249.323 76.4565C237.612 81.0171 249.323 101.084 250.996 109.901C252.669 118.718 254.342 131.183 254.342 141.825C254.342 197.159 192.44 257.359 120.501 243.677C158.311 214.641 149.444 180.589 145.429 149.425C153.961 148.665 160.653 142.585 160.653 134.984C160.653 127.231 153.627 120.998 144.76 120.542C146.433 108.836 151.786 98.0432 163.999 88.618C172.532 82.2332 203.482 76.9126 209.505 68.3995C222.555 50.6133 185.748 14.1289 143.923 15.6491C137.231 1.35931 127.361 -1.225 112.136 0.4472C98.7523 1.96739 85.3682 14.4329 87.0412 26.2904C45.2161 36.9317 21.4594 74.4803 21.4594 74.4803C15.102 83.7534 -0.958811 109.597 0.0449912 141.825C0.379592 152.77 2.7218 164.323 6.90431 175.877L44.3796 148.057V108.076C40.0298 107.012 36.8511 103.516 36.8511 99.2593C36.8511 94.2427 41.3682 90.1382 46.8891 90.1382C52.41 90.1382 56.9271 94.2427 56.9271 99.2593C56.9271 103.516 53.7484 107.164 49.3986 108.076L50.2351 149.73L8.74461 180.437C10.2503 184.238 12.0906 188.038 14.0982 191.839L64.623 154.594C63.9538 153.378 63.7865 152.162 63.7865 150.794C63.7865 145.777 68.3036 141.673 73.8245 141.673C79.3454 141.673 83.8625 145.777 83.8625 150.794C83.8625 155.81 79.3454 159.915 73.8245 159.915C71.6496 159.915 69.4747 159.307 67.8017 158.091L16.2731 196.095C18.6153 200.2 21.1248 204.304 23.969 208.257L57.0944 183.63L74.661 189.558C76.1667 186.518 79.68 184.238 83.6952 184.238C89.2161 184.238 93.7332 188.342 93.7332 193.359C93.7332 198.375 89.2161 202.48 83.6952 202.48C78.3416 202.48 74.1591 198.832 73.6572 194.119L58.0982 188.798L26.8131 212.057C50.4024 243.525 89.0488 268 139.072 268C225.901 268 275.756 193.967 277.931 141.825C278.266 129.359 277.429 120.846 274.418 108.38ZM164.836 39.972C168.015 39.972 170.691 42.4043 170.691 45.2927C170.691 48.1811 168.015 50.6133 164.836 50.6133C161.657 50.6133 158.98 48.1811 158.98 45.2927C158.98 42.4043 161.657 39.972 164.836 39.972Z" fill="#163760"/>
</svg>
